<svg xmlns="http://www.w3.org/2000/svg" viewBox="0 0 1024 1024">
  <defs>
    <radialGradient id="bg" cx="0.5" cy="0.4" r="0.78">
      <stop offset="0" stop-color="#12361F"/><stop offset="0.55" stop-color="#0A2017"/><stop offset="1" stop-color="#06110C"/>
    </radialGradient>
    <linearGradient id="mark" x1="0" y1="0" x2="0" y2="1">
      <stop offset="0" stop-color="#35F0BD"/><stop offset="0.5" stop-color="#10C795"/><stop offset="1" stop-color="#0A8E6A"/>
    </linearGradient>
  </defs>
  <rect width="1024" height="1024" fill="url(#bg)"/>
  <g transform="translate(256.74,720.47) scale(0.29803,-0.29803)">
    <path d="M945 1409H972Q1230 1409 1362.5 1319.5Q1495 1230 1495 1055Q1495 935 1428.5 852.5Q1362 770 1226 741Q1397 721 1486.5 633.5Q1576 546 1576 402Q1576 210 1432.0 105.0Q1288 0 1032 0H948V-240H750V0H626V-240H419V0H137V207H327V1216H137V1409H416V1639H619V1409H743V1639H945ZM1198 1015Q1198 1110 1137.5 1150.0Q1077 1190 958 1190H622V841H960Q1085 841 1141.5 884.5Q1198 928 1198 1015ZM1280 425Q1280 623 996 623H622V219H1007Q1149 219 1214.5 270.5Q1280 322 1280 425Z" fill="url(#mark)"/>
  </g>
</svg>